<?xml version="1.0" encoding="UTF-8" standalone="no"?>
<svg
   viewBox="0 0 262144 262144"
   version="1.1"
   id="svg5"
   sodipodi:docname="HTML5_logo.svg"
   width="262144"
   height="262144"
   xmlns:inkscape="http://www.inkscape.org/namespaces/inkscape"
   xmlns:sodipodi="http://sodipodi.sourceforge.net/DTD/sodipodi-0.dtd"
   xmlns="http://www.w3.org/2000/svg"
   xmlns:svg="http://www.w3.org/2000/svg">
  <defs
     id="defs5" />
  <sodipodi:namedview
     id="namedview5"
     pagecolor="#ffffff"
     bordercolor="#000000"
     borderopacity="0.25"
     inkscape:showpageshadow="2"
     inkscape:pageopacity="0.0"
     inkscape:pagecheckerboard="0"
     inkscape:deskcolor="#d1d1d1"
     showgrid="false">
    <inkscape:page
       x="0"
       y="0"
       width="262144"
       height="262144"
       id="page2"
       margin="0"
       bleed="0" />
  </sodipodi:namedview>
  <title
     id="title1">HTML5 Logo</title>
  <path
     fill="#e44d26"
     d="M 107.6,471 74.6,100.6 H 437.4 L 404.4,470.8 255.7,512"
     id="path2"
     style="fill:#00aad4" />
  <path
     fill="#f16529"
     d="M 256,480.5 V 131 H 404.3 L 376,447"
     id="path3"
     style="fill:#535d6c" />
  <path
     fill="#ebebeb"
     d="m 142,176.3 h 114 v 45.4 h -64.2 l 4.2,46.5 h 60 v 45.3 H 154.4 m 2,22.8 H 202 l 3.2,36.3 50.8,13.6 v 47.4 l -93.2,-26"
     id="path4"
     style="fill:#ffffff" />
  <path
     fill="#ffffff"
     d="M 369.6,176.3 H 255.8 v 45.4 h 109.6 m -4.1,46.5 H 255.8 v 45.4 h 56 l -5.3,59 -50.7,13.6 v 47.2 l 93,-25.8"
     id="path5"
     style="fill:#ffffff" />
  <text
     xml:space="preserve"
     style="font-style:normal;font-variant:normal;font-weight:normal;font-stretch:normal;font-size:92.3244px;font-family:'Arial Rounded MT Bold';-inkscape-font-specification:'Arial Rounded MT Bold, ';text-align:start;writing-mode:lr-tb;direction:ltr;text-anchor:start;fill:#000000;stroke-width:1.73108"
     x="162.94749"
     y="68.747787"
     id="text8"
     transform="scale(0.99862988,1.001372)"><tspan
       sodipodi:role="line"
       id="tspan8"
       x="162.94749"
       y="68.747787"
       style="stroke-width:1.73108">XSG</tspan></text>
</svg>
